HIERARCHY
ROOT Hips
{
  OFFSET -47.7697 91.9036 -56.34
  CHANNELS 6 Xposition Yposition Zposition Zrotation Xrotation Yrotation
  JOINT Spine
  {
    OFFSET 0 8 0
    CHANNELS 6 Xposition Yposition Zposition Zrotation Xrotation Yrotation
    JOINT Spine1
    {
      OFFSET 0 8 0
      CHANNELS 6 Xposition Yposition Zposition Zrotation Xrotation Yrotation
      JOINT Spine2
      {
        OFFSET 0 8 0
        CHANNELS 6 Xposition Yposition Zposition Zrotation Xrotation Yrotation
        JOINT Spine3
        {
          OFFSET 0 8 0
          CHANNELS 6 Xposition Yposition Zposition Zrotation Xrotation Yrotation
          JOINT Neck
          {
            OFFSET 0 17 0
            CHANNELS 6 Xposition Yposition Zposition Zrotation Xrotation Yrotation
            JOINT Head
            {
              OFFSET 0 10.8 0
              CHANNELS 6 Xposition Yposition Zposition Zrotation Xrotation Yrotation
              End Site
              {
                OFFSET 0 20.25 0
              }
            }
          }
          JOINT LeftShoulder
          {
            OFFSET 5 17 0
            CHANNELS 6 Xposition Yposition Zposition Zrotation Xrotation Yrotation
            JOINT LeftShoulder2
            {
              OFFSET 6.45 0 0
              CHANNELS 6 Xposition Yposition Zposition Zrotation Xrotation Yrotation
              JOINT LeftArm
              {
                OFFSET 6.45 0 0
                CHANNELS 6 Xposition Yposition Zposition Zrotation Xrotation Yrotation
                JOINT LeftForeArm
                {
                  OFFSET 0 -32.4 -2
                  CHANNELS 6 Xposition Yposition Zposition Zrotation Xrotation Yrotation
                  JOINT LeftHand
                  {
                    OFFSET 0 -25.65 2
                    CHANNELS 6 Xposition Yposition Zposition Zrotation Xrotation Yrotation
                    JOINT LeftHandThumb1
                    {
                      OFFSET -0.5 -1.5 2.65
                      CHANNELS 6 Xposition Yposition Zposition Zrotation Xrotation Yrotation
                      JOINT LeftHandThumb2
                      {
                        OFFSET 0 -3.8 3.7
                        CHANNELS 6 Xposition Yposition Zposition Zrotation Xrotation Yrotation
                        JOINT LeftHandThumb3
                        {
                          OFFSET 0 -3 2.7
                          CHANNELS 6 Xposition Yposition Zposition Zrotation Xrotation Yrotation
                          End Site
                          {
                            OFFSET 0 -2.3 1.8
                          }
                        }
                      }
                    }
                    JOINT LeftHandIndex
                    {
                      OFFSET 0 -1.9 1.6
                      CHANNELS 6 Xposition Yposition Zposition Zrotation Xrotation Yrotation
                      JOINT LeftHandIndex1
                      {
                        OFFSET 0 -8.3 1.9
                        CHANNELS 6 Xposition Yposition Zposition Zrotation Xrotation Yrotation
                        JOINT LeftHandIndex2
                        {
                          OFFSET 0 -4.5 0
                          CHANNELS 6 Xposition Yposition Zposition Zrotation Xrotation Yrotation
                          JOINT LeftHandIndex3
                          {
                            OFFSET 0 -3.4 0
                            CHANNELS 6 Xposition Yposition Zposition Zrotation Xrotation Yrotation
                            End Site
                            {
                              OFFSET 0 -2.6 0
                            }
                          }
                        }
                      }
                    }
                    JOINT LeftHandMiddle
                    {
                      OFFSET -0.25 -2.2 0.4
                      CHANNELS 6 Xposition Yposition Zposition Zrotation Xrotation Yrotation
                      JOINT LeftHandMiddle1
                      {
                        OFFSET 0 -8.3 1
                        CHANNELS 6 Xposition Yposition Zposition Zrotation Xrotation Yrotation
                        JOINT LeftHandMiddle2
                        {
                          OFFSET 0 -4.65 0
                          CHANNELS 6 Xposition Yposition Zposition Zrotation Xrotation Yrotation
                          JOINT LeftHandMiddle3
                          {
                            OFFSET 0 -3.3 0
                            CHANNELS 6 Xposition Yposition Zposition Zrotation Xrotation Yrotation
                            End Site
                            {
                              OFFSET 0 -2.7 0
                            }
                          }
                        }
                      }
                    }
                    JOINT LeftHandRing
                    {
                      OFFSET -0.5 -2.15 -0.8
                      CHANNELS 6 Xposition Yposition Zposition Zrotation Xrotation Yrotation
                      JOINT LeftHandRing1
                      {
                        OFFSET 0 -7.75 -0.2
                        CHANNELS 6 Xposition Yposition Zposition Zrotation Xrotation Yrotation
                        JOINT LeftHandRing2
                        {
                          OFFSET 0 -3.8 0
                          CHANNELS 6 Xposition Yposition Zposition Zrotation Xrotation Yrotation
                          JOINT LeftHandRing3
                          {
                            OFFSET 0 -3.4 0
                            CHANNELS 6 Xposition Yposition Zposition Zrotation Xrotation Yrotation
                            End Site
                            {
                              OFFSET 0 -2.6 0
                            }
                          }
                        }
                      }
                    }
                    JOINT LeftHandPinky
                    {
                      OFFSET -0.75 -1.75 -1.85
                      CHANNELS 6 Xposition Yposition Zposition Zrotation Xrotation Yrotation
                      JOINT LeftHandPinky1
                      {
                        OFFSET 0 -7.15 -1
                        CHANNELS 6 Xposition Yposition Zposition Zrotation Xrotation Yrotation
                        JOINT LeftHandPinky2
                        {
                          OFFSET 0 -3 0
                          CHANNELS 6 Xposition Yposition Zposition Zrotation Xrotation Yrotation
                          JOINT LeftHandPinky3
                          {
                            OFFSET 0 -2.35 0
                            CHANNELS 6 Xposition Yposition Zposition Zrotation Xrotation Yrotation
                            End Site
                            {
                              OFFSET 0 -2.1 0
                            }
                          }
                        }
                      }
                    }
                  }
                }
              }
            }
          }
          JOINT RightShoulder
          {
            OFFSET -5 17 0
            CHANNELS 6 Xposition Yposition Zposition Zrotation Xrotation Yrotation
            JOINT RightShoulder2
            {
              OFFSET -6.45 0 0
              CHANNELS 6 Xposition Yposition Zposition Zrotation Xrotation Yrotation
              JOINT RightArm
              {
                OFFSET -6.45 0 0
                CHANNELS 6 Xposition Yposition Zposition Zrotation Xrotation Yrotation
                JOINT RightForeArm
                {
                  OFFSET 0 -32.4 -2
                  CHANNELS 6 Xposition Yposition Zposition Zrotation Xrotation Yrotation
                  JOINT RightHand
                  {
                    OFFSET 0 -25.65 2
                    CHANNELS 6 Xposition Yposition Zposition Zrotation Xrotation Yrotation
                    JOINT RightHandThumb1
                    {
                      OFFSET 0.5 -1.5 2.65
                      CHANNELS 6 Xposition Yposition Zposition Zrotation Xrotation Yrotation
                      JOINT RightHandThumb2
                      {
                        OFFSET 0 -3.8 3.7
                        CHANNELS 6 Xposition Yposition Zposition Zrotation Xrotation Yrotation
                        JOINT RightHandThumb3
                        {
                          OFFSET 0 -3 2.7
                          CHANNELS 6 Xposition Yposition Zposition Zrotation Xrotation Yrotation
                          End Site
                          {
                            OFFSET 0 -2.3 1.8
                          }
                        }
                      }
                    }
                    JOINT RightHandIndex
                    {
                      OFFSET 0 -1.9 1.6
                      CHANNELS 6 Xposition Yposition Zposition Zrotation Xrotation Yrotation
                      JOINT RightHandIndex1
                      {
                        OFFSET 0 -8.3 1.9
                        CHANNELS 6 Xposition Yposition Zposition Zrotation Xrotation Yrotation
                        JOINT RightHandIndex2
                        {
                          OFFSET 0 -4.5 0
                          CHANNELS 6 Xposition Yposition Zposition Zrotation Xrotation Yrotation
                          JOINT RightHandIndex3
                          {
                            OFFSET 0 -3.4 0
                            CHANNELS 6 Xposition Yposition Zposition Zrotation Xrotation Yrotation
                            End Site
                            {
                              OFFSET 0 -2.6 0
                            }
                          }
                        }
                      }
                    }
                    JOINT RightHandMiddle
                    {
                      OFFSET 0.25 -2.2 0.4
                      CHANNELS 6 Xposition Yposition Zposition Zrotation Xrotation Yrotation
                      JOINT RightHandMiddle1
                      {
                        OFFSET 0 -8.3 1
                        CHANNELS 6 Xposition Yposition Zposition Zrotation Xrotation Yrotation
                        JOINT RightHandMiddle2
                        {
                          OFFSET 0 -4.65 0
                          CHANNELS 6 Xposition Yposition Zposition Zrotation Xrotation Yrotation
                          JOINT RightHandMiddle3
                          {
                            OFFSET 0 -3.3 0
                            CHANNELS 6 Xposition Yposition Zposition Zrotation Xrotation Yrotation
                            End Site
                            {
                              OFFSET 0 -2.7 0
                            }
                          }
                        }
                      }
                    }
                    JOINT RightHandRing
                    {
                      OFFSET 0.5 -2.15 -0.8
                      CHANNELS 6 Xposition Yposition Zposition Zrotation Xrotation Yrotation
                      JOINT RightHandRing1
                      {
                        OFFSET 0 -7.75 -0.2
                        CHANNELS 6 Xposition Yposition Zposition Zrotation Xrotation Yrotation
                        JOINT RightHandRing2
                        {
                          OFFSET 0 -3.8 0
                          CHANNELS 6 Xposition Yposition Zposition Zrotation Xrotation Yrotation
                          JOINT RightHandRing3
                          {
                            OFFSET 0 -3.4 0
                            CHANNELS 6 Xposition Yposition Zposition Zrotation Xrotation Yrotation
                            End Site
                            {
                              OFFSET 0 -2.6 0
                            }
                          }
                        }
                      }
                    }
                    JOINT RightHandPinky
                    {
                      OFFSET 0.75 -1.75 -1.85
                      CHANNELS 6 Xposition Yposition Zposition Zrotation Xrotation Yrotation
                      JOINT RightHandPinky1
                      {
                        OFFSET 0 -7.15 -1
                        CHANNELS 6 Xposition Yposition Zposition Zrotation Xrotation Yrotation
                        JOINT RightHandPinky2
                        {
                          OFFSET 0 -3 0
                          CHANNELS 6 Xposition Yposition Zposition Zrotation Xrotation Yrotation
                          JOINT RightHandPinky3
                          {
                            OFFSET 0 -2.35 0
                            CHANNELS 6 Xposition Yposition Zposition Zrotation Xrotation Yrotation
                            End Site
                            {
                              OFFSET 0 -2.1 0
                            }
                          }
                        }
                      }
                    }
                  }
                }
              }
            }
          }
        }
      }
    }
  }
  JOINT LeftUpLeg
  {
    OFFSET 8 0 0
    CHANNELS 6 Xposition Yposition Zposition Zrotation Xrotation Yrotation
    JOINT LeftLeg
    {
      OFFSET 0 -45 -1
      CHANNELS 6 Xposition Yposition Zposition Zrotation Xrotation Yrotation
      JOINT LeftFoot
      {
        OFFSET 0 -41 -2
        CHANNELS 6 Xposition Yposition Zposition Zrotation Xrotation Yrotation
        JOINT LeftToeBase
        {
          OFFSET 0 -7.5 12.5
          CHANNELS 6 Xposition Yposition Zposition Zrotation Xrotation Yrotation
          JOINT LeftFootToe
          {
            OFFSET 0 0 4
            CHANNELS 6 Xposition Yposition Zposition Zrotation Xrotation Yrotation
            End Site
            {
              OFFSET 0 0 0
            }
          }
        }
      }
    }
  }
  JOINT RightUpLeg
  {
    OFFSET -8 0 0
    CHANNELS 6 Xposition Yposition Zposition Zrotation Xrotation Yrotation
    JOINT RightLeg
    {
      OFFSET 0 -45 -1
      CHANNELS 6 Xposition Yposition Zposition Zrotation Xrotation Yrotation
      JOINT RightFoot
      {
        OFFSET 0 -41 -2
        CHANNELS 6 Xposition Yposition Zposition Zrotation Xrotation Yrotation
        JOINT RightToeBase
        {
          OFFSET 0 -7.5 12.5
          CHANNELS 6 Xposition Yposition Zposition Zrotation Xrotation Yrotation
          JOINT RightFootToe
          {
            OFFSET 0 0 4
            CHANNELS 6 Xposition Yposition Zposition Zrotation Xrotation Yrotation
            End Site
            {
              OFFSET 0 0 0
            }
          }
        }
      }
    }
  }
}
MOTION
Frames:	3
Frame Time:	0.0111111
-53.0154 93.6452 -76.139 -1.76547 -0.259557 38.0872 1e-05 8 1e-05 -7.52995 6.34449 1.51864 1e-05 8 1e-05 -0.623534 2.13362 6.2397 1e-05 8 1e-05 -2.53349 -2.91584 29.337 1e-05 8 1e-05 2.97008 1.10221 -17.2173 1e-05 17 1e-05 0.363326 2.89819 8.71408 1e-05 10.8 1e-05 0.151146 6.81698 20.4636 5 17 1e-05 -0.00182207 -0.00876132 -4.26429 6.45 1e-05 1e-05 -0.00155405 -0.00891107 -4.2643 6.45 1e-05 1e-05 12.1645 -20.1651 0.542447 1e-05 -32.4 -2 -23.5775 -70.4658 -56.9431 1e-05 -25.65 2 39.6207 -13.5018 -47.877 -0.5 -1.5 2.65 -12.8971 -5.18878 -18.4872 1e-05 -3.8 3.7 0.782785 21.9634 -0.25366 1e-05 -3 2.7 0.0118564 5.11049 -0.00851551 1e-05 -1.9 1.6 4.94948e-06 -5.86679e-07 -4.74157e-07 1e-05 -8.3 1.9 -12.047 -15.2792 -1.4656 1e-05 -4.5 1e-05 -12.1432 0.00704613 0.0133849 1e-05 -3.4 1e-05 -10.4299 0.00372971 0.0108199 -0.25 -2.2 0.4 4.94948e-06 -5.86679e-07 -4.74157e-07 1e-05 -8.3 1 -9.74126 -12.5496 -0.929536 1e-05 -4.65 1e-05 -1.90113 0.00679168 0.0027753 1e-05 -3.3 1e-05 -1.85097 0.00130108 0.00538436 -0.5 -2.15 -0.8 4.94948e-06 -5.86679e-07 -4.74157e-07 1e-05 -7.75 -0.2 -5.59195 -8.66356 -0.29318 1e-05 -3.8 1e-05 -2.32047 -0.00540376 0.00976874 1e-05 -3.4 1e-05 -2.24229 -0.00504448 0.0124581 -0.75 -1.75 -1.85 4.94948e-06 -5.86679e-07 -4.74157e-07 1e-05 -7.15 -1 -2.79508 -6.96764 -0.0551273 1e-05 -3 1e-05 -0.000432257 6.90493e-06 -2.53829e-06 1e-05 -2.35 1e-05 -5.72476e-06 -6.36111e-15 -1.59028e-15 -5 17 1e-05 -1.6034 -0.0813676 5.56753 -6.45 1e-05 1e-05 -1.60343 -0.0813485 5.5675 -6.45 1e-05 1e-05 -2.47896 -37.5961 0.201753 1e-05 -32.4 -2 17.4042 -44.4878 0.326848 1e-05 -25.65 2 -39.2469 -18.8842 8.49198 0.5 -1.5 2.65 -1.62117 -14.128 -4.54318 1e-05 -3.8 3.7 -0.0814879 14.1075 0.0643435 1e-05 -3 2.7 -0.0291589 15.9882 -0.00185243 1e-05 -1.9 1.6 0 0 -7.95139e-16 1e-05 -8.3 1.9 5.01552 18.1247 -0.976602 1e-05 -4.5 1e-05 34.4944 0.0165454 -0.0186504 1e-05 -3.4 1e-05 24.7949 0.00442119 -0.00927285 0.25 -2.2 0.4 0 0 -7.95139e-16 1e-05 -8.3 1 39.4102 19.7611 -8.50477 1e-05 -4.65 1e-05 31.1462 -0.0550192 0.0022693 1e-05 -3.3 1e-05 22.7801 -0.000683881 0.002816 0.5 -2.15 -0.8 0 0 -7.95139e-16 1e-05 -7.75 -0.2 64.7326 10.1512 -10.7311 1e-05 -3.8 1e-05 51.0065 0.00501678 0.0104066 1e-05 -3.4 1e-05 35.3369 0.00984053 -0.010036 0.75 -1.75 -1.85 0 0 -7.95139e-16 1e-05 -7.15 -1 49.2198 -2.12905 -2.0022 1e-05 -3 1e-05 26.5179 -0.00102427 0.011394 1e-05 -2.35 1e-05 19.9802 0.00544107 0.0114711 8 1e-05 1e-05 -0.436985 -3.33886 -13.0539 1e-05 -45 -1 0.153649 3.79119 3.78837 1e-05 -41 -2 1.16341 -1.04038 10.9583 1e-05 -7.5 12.5 -1.36533e-08 -2.13207e-07 2.13372e-07 1e-05 1e-05 4 5.13824 -4.37455 0.0165385 -8 1e-05 1e-05 36.5621 -56.517 39.8731 1e-05 -45 -1 -25.1444 82.8106 28.9957 1e-05 -41 -2 -1.67884 0.448625 -18.028 1e-05 -7.5 12.5 6.80352e-07 -9.21309e-08 -4.29071e-07 1e-05 1e-05 4 -0.00726321 -0.0034402 -0.00437149 
-52.9479 93.6608 -76.1597 -1.87765 -0.327512 38.0657 1e-05 8 1e-05 -7.59784 6.37593 1.53061 1e-05 8 1e-05 -0.680344 2.13305 6.24243 1e-05 8 1e-05 -2.53332 -3.01253 29.3463 1e-05 8 1e-05 3.01776 1.14032 -17.1546 1e-05 17 1e-05 0.377941 2.89187 8.71991 1e-05 10.8 1e-05 0.186432 6.80574 20.4761 5 17 1e-05 -0.00186178 -0.00875827 -4.52403 6.45 1e-05 1e-05 -0.00159444 -0.00890797 -4.52402 6.45 1e-05 1e-05 12.6105 -21.5601 0.848235 1e-05 -32.4 -2 -21.3789 -70.0981 -55.224 1e-05 -25.65 2 38.7574 -12.6361 -48.4081 -0.5 -1.5 2.65 -12.8124 -5.17574 -18.8241 1e-05 -3.8 3.7 0.784068 21.3301 -0.252028 1e-05 -3 2.7 0.0118513 5.07611 -0.00851505 1e-05 -1.9 1.6 4.94948e-06 -5.86679e-07 -4.74157e-07 1e-05 -8.3 1.9 -10.1396 -14.6224 -1.15526 1e-05 -4.5 1e-05 -12.4066 0.0068241 0.00880218 1e-05 -3.4 1e-05 -10.6273 0.00405881 0.00725693 -0.25 -2.2 0.4 4.94948e-06 -5.86679e-07 -4.74157e-07 1e-05 -8.3 1 -8.16623 -12.1156 -0.72952 1e-05 -4.65 1e-05 -1.78698 0.00679168 0.00252372 1e-05 -3.3 1e-05 -1.74164 0.00130108 0.00538436 -0.5 -2.15 -0.8 4.94948e-06 -5.86679e-07 -4.74157e-07 1e-05 -7.75 -0.2 -4.55783 -8.4613 -0.212063 1e-05 -3.8 1e-05 -2.23903 -0.0138458 0.00909348 1e-05 -3.4 1e-05 -2.16342 -0.0129854 0.0128599 -0.75 -1.75 -1.85 4.94948e-06 -5.86679e-07 -4.74157e-07 1e-05 -7.15 -1 -2.20201 -6.85602 -0.020338 1e-05 -3 1e-05 -0.000433692 6.90493e-06 -2.53829e-06 1e-05 -2.35 1e-05 -5.65476e-06 -1.27222e-14 1.59028e-15 -5 17 1e-05 -1.57973 -0.0808685 5.54002 -6.45 1e-05 1e-05 -1.57975 -0.0808975 5.54 -6.45 1e-05 1e-05 -2.88972 -37.1818 -0.77805 1e-05 -32.4 -2 18.5121 -45.3045 1.12812 1e-05 -25.65 2 -38.2057 -18.6709 8.87189 0.5 -1.5 2.65 -1.7005 -14.1698 -4.73503 1e-05 -3.8 3.7 -0.08101 14.2831 0.0648233 1e-05 -3 2.7 -0.031896 15.3761 -0.000404106 1e-05 -1.9 1.6 3.18055e-15 0 1.59028e-15 1e-05 -8.3 1.9 5.06007 18.2003 -0.993154 1e-05 -4.5 1e-05 32.1174 0.0239009 -0.0178894 1e-05 -3.4 1e-05 23.3543 0.00894706 -0.00927285 0.25 -2.2 0.4 3.18055e-15 0 1.59028e-15 1e-05 -8.3 1 40.2596 19.7736 -8.71767 1e-05 -4.65 1e-05 31.273 -0.0574914 0.00399512 1e-05 -3.3 1e-05 22.8557 -0.000683881 0.00524249 0.5 -2.15 -0.8 3.18055e-15 0 1.59028e-15 1e-05 -7.75 -0.2 65.8999 10.1064 -11.0215 1e-05 -3.8 1e-05 52.5649 0.00501678 0.0172194 1e-05 -3.4 1e-05 36.4053 0.00984053 -0.010036 0.75 -1.75 -1.85 3.18055e-15 0 1.59028e-15 1e-05 -7.15 -1 50.0107 -2.09818 -2.10023 1e-05 -3 1e-05 27.4013 -0.00102427 0.00556259 1e-05 -2.35 1e-05 20.5265 0.00544107 0.0114711 8 1e-05 1e-05 -0.350357 -3.34057 -13.036 1e-05 -45 -1 0.152647 3.80095 3.78341 1e-05 -41 -2 1.20959 -1.0567 10.8941 1e-05 -7.5 12.5 -1.36533e-08 -2.13207e-07 2.13372e-07 1e-05 1e-05 4 5.15359 -4.35064 0.015534 -8 1e-05 1e-05 36.5029 -56.5237 39.7239 1e-05 -45 -1 -24.8584 82.7142 28.7236 1e-05 -41 -2 -1.72801 0.447603 -17.8942 1e-05 -7.5 12.5 6.80352e-07 -9.21309e-08 -4.29071e-07 1e-05 1e-05 4 -0.0201442 -0.00351045 0.0163118 
-52.8848 93.6772 -76.1791 -1.9968 -0.395215 38.0593 1e-05 8 1e-05 -7.66576 6.41198 1.53119 1e-05 8 1e-05 -0.738033 2.13711 6.24276 1e-05 8 1e-05 -2.54449 -3.12195 29.3469 1e-05 8 1e-05 3.07115 1.18173 -17.0859 1e-05 17 1e-05 0.38956 2.88363 8.76258 1e-05 10.8 1e-05 0.212337 6.7895 20.5762 5 17 1e-05 0.00289223 -0.00875495 -4.79083 6.45 1e-05 1e-05 0.00317666 -0.00890459 -4.79084 6.45 1e-05 1e-05 13.1574 -22.9991 1.19064 1e-05 -32.4 -2 -19.3156 -69.5881 -53.6993 1e-05 -25.65 2 37.5809 -11.8458 -49.1851 -0.5 -1.5 2.65 -12.6058 -5.09257 -18.8649 1e-05 -3.8 3.7 0.779101 20.7735 -0.251014 1e-05 -3 2.7 0.0118445 5.03083 -0.00851446 1e-05 -1.9 1.6 4.94948e-06 -5.86679e-07 -4.74157e-07 1e-05 -8.3 1.9 -8.2276 -13.8195 -0.851113 1e-05 -4.5 1e-05 -12.6483 0.00488643 0.00325351 1e-05 -3.4 1e-05 -10.8074 0.00309422 0.00725693 -0.25 -2.2 0.4 4.94948e-06 -5.86679e-07 -4.74157e-07 1e-05 -8.3 1 -6.6092 -11.5337 -0.531159 1e-05 -4.65 1e-05 -1.61722 0.00679168 0.002393 1e-05 -3.3 1e-05 -1.57906 0.00130108 0.00538436 -0.5 -2.15 -0.8 4.94948e-06 -5.86679e-07 -4.74157e-07 1e-05 -7.75 -0.2 -3.60901 -8.1407 -0.136728 1e-05 -3.8 1e-05 -1.94662 -0.0191363 0.00861988 1e-05 -3.4 1e-05 -1.8854 -0.0182539 0.013037 -0.75 -1.75 -1.85 4.94948e-06 -5.86679e-07 -4.74157e-07 1e-05 -7.15 -1 -1.67887 -6.61847 0.00775122 1e-05 -3 1e-05 -0.000434694 6.90493e-06 -2.53829e-06 1e-05 -2.35 1e-05 -5.47877e-06 -1.27222e-14 -3.18055e-15 -5 17 1e-05 -1.5612 -0.0804208 5.51919 -6.45 1e-05 1e-05 -1.56121 -0.0804941 5.51918 -6.45 1e-05 1e-05 -3.27938 -36.8168 -1.75111 1e-05 -32.4 -2 19.6493 -46.0431 1.93711 1e-05 -25.65 2 -37.2957 -18.364 9.16651 0.5 -1.5 2.65 -1.76213 -14.1983 -4.91917 1e-05 -3.8 3.7 -0.0806242 14.471 0.0652509 1e-05 -3 2.7 -0.0330244 14.7871 0.00108686 1e-05 -1.9 1.6 3.18055e-15 0 -4.77083e-15 1e-05 -8.3 1.9 5.03733 18.1654 -0.990249 1e-05 -4.5 1e-05 29.9739 0.0248091 -0.0173577 1e-05 -3.4 1e-05 22.0594 0.00894706 -0.00927285 0.25 -2.2 0.4 3.18055e-15 0 -4.77083e-15 1e-05 -8.3 1 40.8089 19.7607 -8.84937 1e-05 -4.65 1e-05 31.4272 -0.059267 0.0056736 1e-05 -3.3 1e-05 22.9477 -0.000683881 0.00749128 0.5 -2.15 -0.8 3.18055e-15 0 -4.77083e-15 1e-05 -7.75 -0.2 66.7231 10.0329 -11.2081 1e-05 -3.8 1e-05 53.9494 0.00501678 0.0153305 1e-05 -3.4 1e-05 37.3725 0.00984053 -0.010036 0.75 -1.75 -1.85 3.18055e-15 0 -4.77083e-15 1e-05 -7.15 -1 50.6465 -2.08405 -2.17589 1e-05 -3 1e-05 27.7162 -0.00102427 0.00556259 1e-05 -2.35 1e-05 20.717 0.00544107 0.0114711 8 1e-05 1e-05 -0.253967 -3.3546 -12.9798 1e-05 -45 -1 0.150958 3.82057 3.77937 1e-05 -41 -2 1.251 -1.07738 10.7842 1e-05 -7.5 12.5 -1.36533e-08 -2.13207e-07 2.13372e-07 1e-05 1e-05 4 5.15581 -4.33202 0.0288592 -8 1e-05 1e-05 36.4642 -56.5308 39.608 1e-05 -45 -1 -24.542 82.6173 28.4158 1e-05 -41 -2 -1.80088 0.446536 -17.7449 1e-05 -7.5 12.5 6.80352e-07 -9.21309e-08 -4.29071e-07 1e-05 1e-05 4 -0.00707019 -0.00356708 -0.0033163 
